<svg data-v-1084b650="" xmlns="http://www.w3.org/2000/svg" viewBox="0 0 300 300"><!----> <!----> <rect data-v-1084b650="" fill="#FCF4ED" x="0" y="0" width="300px" height="300px" class="logo-background-square"></rect> <!----> <linearGradient data-v-1084b650="" gradientTransform="rotate(25)" id="8b01636c-14a9-0b8f-dae3-657054534188" x1="0%" y1="0%" x2="100%" y2="0%"><stop data-v-1084b650="" offset="0%" style="stop-color: rgb(218, 110, 42); stop-opacity: 1;"></stop> <stop data-v-1084b650="" offset="100%" style="stop-color: rgb(227, 158, 90); stop-opacity: 1;"></stop></linearGradient> <g data-v-1084b650="" id="862c87ee-c2d6-da69-49d6-43806bec1e55" fill="url(#8b01636c-14a9-0b8f-dae3-657054534188)" stroke="none" transform="matrix(0.6999999999999997,0,0,0.6999999999999997,44.99895057678226,45.0001790761948)"><!--?xml version="1.0" encoding="utf-8"?--><svg version="1.1" xmlns:rdf="http://www.w3.org/1999/02/22-rdf-syntax-ns#" xmlns:cc="http://creativecommons.org/ns#" xmlns:sodipodi="http://sodipodi.sourceforge.net/DTD/sodipodi-0.dtd" xmlns:dc="http://purl.org/dc/elements/1.1/" xmlns:inkscape="http://www.inkscape.org/namespaces/inkscape" xmlns:svg="http://www.w3.org/2000/svg" xmlns="http://www.w3.org/2000/svg" xmlns:xlink="http://www.w3.org/1999/xlink" x="0px" y="0px" viewBox="3.631 0 92.738 100" enable-background="new 3.631 0 92.738 100" xml:space="preserve"><path d="M49.904,0.001c-1.182,0.035-2.322,0.734-2.887,1.773L4.035,80.425c-0.56,1.028-0.535,2.353,0.063,3.358
	c0.599,1.008,1.749,1.662,2.92,1.662h13.237v7.113c0,4.03,3.308,7.441,7.368,7.441h2.58v-6.794h-2.58
	c-0.339,0-0.573-0.202-0.573-0.647v-10.51c0-0.889-0.366-1.773-0.995-2.401c-0.629-0.629-1.513-0.995-2.402-0.995H12.739L50,10.479
	l37.261,68.174H76.348c-0.889,0-1.773,0.366-2.402,0.995c-0.628,0.628-0.994,1.513-0.994,2.401v10.51
	c0,0.446-0.234,0.647-0.573,0.647h-2.58V100h2.58c4.06,0,7.367-3.411,7.367-7.441v-7.113h13.237c1.172,0,2.321-0.654,2.92-1.662
	c0.598-1.006,0.623-2.33,0.063-3.358L52.982,1.774C52.388,0.679,51.15-0.033,49.904,0.001L49.904,0.001z"></path><path d="M38.769,78.036c-0.889,0-1.77,0.369-2.399,0.998s-0.998,1.51-0.998,2.399V100h6.794V84.83h15.668V100h6.795V81.434
	c-0.001-0.89-0.369-1.771-0.998-2.399s-1.51-0.998-2.399-0.998H38.769z"></path></svg></g></svg>