<?xml version="1.0" encoding="utf-8"?>
<!-- Generator: Adobe Illustrator 21.1.0, SVG Export Plug-In . SVG Version: 6.00 Build 0)  -->
<svg version="1.1"
	 id="Layer_1" xmlns:cc="http://creativecommons.org/ns#" xmlns:dc="http://purl.org/dc/elements/1.1/" xmlns:inkscape="http://www.inkscape.org/namespaces/inkscape" xmlns:rdf="http://www.w3.org/1999/02/22-rdf-syntax-ns#" xmlns:sodipodi="http://sodipodi.sourceforge.net/DTD/sodipodi-0.dtd" xmlns:svg="http://www.w3.org/2000/svg"
	 xmlns="http://www.w3.org/2000/svg" xmlns:xlink="http://www.w3.org/1999/xlink" x="0px" y="0px" viewBox="0 0 300 300"
	 style="enable-background:new 0 0 300 300;" xml:space="preserve">
<style type="text/css">
	.st0{fill:url(#SVGID_1_);}
	.st1{fill:url(#SVGID_2_);}
</style>
<g id="_x38_62c87ee-c2d6-da69-49d6-43806bec1e55" transform="matrix(0.6999999999999997,0,0,0.6999999999999997,44.99895057678226,45.0001790761948)">
	
		<linearGradient id="SVGID_1_" gradientUnits="userSpaceOnUse" x1="-304.3575" y1="493.8281" x2="-303.3575" y2="493.8281" gradientTransform="matrix(176.5028 88.75 82.3046 -190.325 13041.4707 121079.7266)">
		<stop  offset="0" style="stop-color:#DA6E2A"/>
		<stop  offset="1" style="stop-color:#E39E5A"/>
	</linearGradient>
	<path class="st0" d="M139.3,0c-3.5,0.1-7,2.2-8.7,5.3L1.7,241.3c-1.7,3.1-1.6,7.1,0.2,10.1c1.8,3,5.2,5,8.8,5h39.7v21.3
		c0,12.1,9.9,22.3,22.1,22.3h7.7v-20.4h-7.7c-1,0-1.7-0.6-1.7-1.9v-31.5c0-2.7-1.1-5.3-3-7.2c-1.9-1.9-4.5-3-7.2-3H27.8L139.6,31.4
		L251.4,236h-32.7c-2.7,0-5.3,1.1-7.2,3c-1.9,1.9-3,4.5-3,7.2v31.5c0,1.3-0.7,1.9-1.7,1.9H199V300h7.7c12.2,0,22.1-10.2,22.1-22.3
		v-21.3h39.7c3.5,0,7-2,8.8-5c1.8-3,1.9-7,0.2-10.1l-129-236C146.8,2,143.1-0.1,139.3,0L139.3,0z"/>
	
		<linearGradient id="SVGID_2_" gradientUnits="userSpaceOnUse" x1="-301.063" y1="493.0374" x2="-300.063" y2="493.0374" gradientTransform="matrix(55.6833 19.493 25.9655 -41.8029 4048.2019 26728.791)">
		<stop  offset="0" style="stop-color:#DA6E2A"/>
		<stop  offset="1" style="stop-color:#E39E5A"/>
	</linearGradient>
	<path class="st1" d="M105.9,234.1c-2.7,0-5.3,1.1-7.2,3s-3,4.5-3,7.2V300h20.4v-45.5h47V300h20.4v-55.7c0-2.7-1.1-5.3-3-7.2
		c-1.9-1.9-4.5-3-7.2-3L105.9,234.1L105.9,234.1z"/>
</g>
</svg>
